<svg width="48" height="48" viewBox="0 0 48 48" fill="none" xmlns="http://www.w3.org/2000/svg">
<g clip-path="url(#clip0_6201_2)">
<path fill-rule="evenodd" clip-rule="evenodd" d="M26 4C27.1046 4 28 4.89543 28 6V28H43.8431L32.7219 39.1213C32.1593 39.6839 31.3962 40 30.6005 40H16V20H4V6C4 4.89543 4.88761 4 5.99218 4H26ZM12 40C12 42.2092 13.7909 44 16 44V48H20V44H24V48H28V44H30.6005C32.457 44 34.2375 43.2625 35.5503 41.9498L46.6716 30.8284C49.1914 28.3086 47.4067 24 43.8431 24H32V8C32 3.58173 28.4183 0 24 0H8C3.58167 0 0 3.58173 0 8V22C0 23.1046 0.895386 24 2 24H12V28H6C4.89539 28 4 28.8954 4 30V36H8V32H12V40ZM22 8H18V12H22V8Z" fill="#092433"/>
</g>
<defs>
<clipPath id="clip0_6201_2">
<rect width="48" height="48" fill="white"/>
</clipPath>
</defs>
</svg>
